<svg width="170" height="60" viewBox="0 0 170 60" fill="none" xmlns="http://www.w3.org/2000/svg">
<path d="M65.2623 41.5587C66.5557 41.5587 67.6223 41.7187 68.4623 42.0387C69.3023 42.3454 69.929 42.8187 70.3423 43.4587C70.7557 44.0854 70.9623 44.8787 70.9623 45.8387C70.9623 46.492 70.8357 47.0654 70.5823 47.5587C70.3423 48.0387 70.0157 48.452 69.6023 48.7987C69.2023 49.132 68.769 49.4054 68.3023 49.6187L72.5023 55.8387H69.1423L65.7423 50.3587H64.1223V55.8387H61.1023V41.5587H65.2623ZM65.0423 44.0387H64.1223V47.8987H65.1023C65.769 47.8987 66.309 47.8254 66.7223 47.6787C67.1357 47.532 67.4357 47.312 67.6223 47.0187C67.809 46.712 67.9023 46.3454 67.9023 45.9187C67.9023 45.4654 67.7957 45.1054 67.5823 44.8387C67.3823 44.5587 67.069 44.3587 66.6423 44.2387C66.229 44.1054 65.6957 44.0387 65.0423 44.0387ZM82.5255 55.8387H74.3055V41.5587H82.5255V44.0387H77.3255V47.1787H82.1655V49.6587H77.3255V53.3387H82.5255V55.8387ZM98.1569 55.8387H94.3169L88.0969 45.0387H88.0169C88.0302 45.372 88.0435 45.712 88.0569 46.0587C88.0702 46.392 88.0835 46.732 88.0969 47.0787C88.1235 47.412 88.1435 47.752 88.1569 48.0987C88.1702 48.432 88.1835 48.772 88.1969 49.1187V55.8387H85.4969V41.5587H89.3169L95.5169 52.2587H95.5769C95.5635 51.9254 95.5502 51.5987 95.5369 51.2787C95.5235 50.9454 95.5102 50.6187 95.4969 50.2987C95.4969 49.9654 95.4902 49.6387 95.4769 49.3187C95.4635 48.9854 95.4502 48.652 95.4369 48.3187V41.5587H98.1569V55.8387ZM107.266 55.8387H104.246V44.0787H100.366V41.5587H111.146V44.0787H107.266V55.8387ZM130.888 41.5587L127.248 55.8387H123.808L121.868 48.3387C121.828 48.192 121.775 47.972 121.708 47.6787C121.655 47.3854 121.588 47.0654 121.508 46.7187C121.442 46.372 121.382 46.0454 121.328 45.7387C121.275 45.4187 121.235 45.172 121.208 44.9987C121.195 45.172 121.155 45.4187 121.088 45.7387C121.035 46.0454 120.975 46.372 120.908 46.7187C120.842 47.052 120.775 47.372 120.708 47.6787C120.642 47.972 120.588 48.1987 120.548 48.3587L118.628 55.8387H115.188L111.548 41.5587H114.528L116.348 49.3587C116.402 49.5854 116.462 49.8654 116.528 50.1987C116.595 50.5187 116.662 50.8587 116.728 51.2187C116.795 51.5654 116.855 51.9054 116.908 52.2387C116.975 52.572 117.022 52.8587 117.048 53.0987C117.075 52.8454 117.115 52.5587 117.168 52.2387C117.222 51.9054 117.282 51.572 117.348 51.2387C117.415 50.892 117.475 50.572 117.528 50.2787C117.595 49.972 117.655 49.732 117.708 49.5587L119.788 41.5587H122.648L124.728 49.5587C124.768 49.732 124.822 49.972 124.888 50.2787C124.955 50.572 125.022 50.892 125.088 51.2387C125.155 51.5854 125.215 51.9254 125.268 52.2587C125.322 52.5787 125.362 52.8587 125.388 53.0987C125.428 52.7654 125.488 52.372 125.568 51.9187C125.648 51.452 125.735 50.9854 125.828 50.5187C125.935 50.052 126.022 49.6654 126.088 49.3587L127.908 41.5587H130.888ZM137.124 47.4387L140.104 41.5587H143.364L138.624 50.2787V55.8387H135.624V50.3787L130.884 41.5587H134.164L137.124 47.4387ZM153.585 51.8787C153.585 52.7187 153.378 53.452 152.965 54.0787C152.551 54.7054 151.951 55.192 151.165 55.5387C150.391 55.872 149.445 56.0387 148.325 56.0387C147.831 56.0387 147.345 56.0054 146.865 55.9387C146.398 55.872 145.945 55.7787 145.505 55.6587C145.078 55.5254 144.671 55.3654 144.285 55.1787V52.3587C144.965 52.652 145.665 52.9254 146.385 53.1787C147.118 53.4187 147.845 53.5387 148.565 53.5387C149.058 53.5387 149.451 53.472 149.745 53.3387C150.051 53.2054 150.271 53.0254 150.405 52.7987C150.551 52.572 150.625 52.312 150.625 52.0187C150.625 51.6587 150.498 51.352 150.245 51.0987C150.005 50.8454 149.678 50.612 149.265 50.3987C148.851 50.172 148.378 49.932 147.845 49.6787C147.511 49.5187 147.151 49.332 146.765 49.1187C146.378 48.892 146.005 48.6187 145.645 48.2987C145.298 47.9654 145.011 47.5654 144.785 47.0987C144.558 46.632 144.445 46.072 144.445 45.4187C144.445 44.5654 144.638 43.8387 145.025 43.2387C145.425 42.6254 145.985 42.1587 146.705 41.8387C147.438 41.5187 148.298 41.3587 149.285 41.3587C150.031 41.3587 150.738 41.4454 151.405 41.6187C152.085 41.792 152.791 42.0387 153.525 42.3587L152.545 44.7187C151.891 44.452 151.305 44.2454 150.785 44.0987C150.265 43.952 149.731 43.8787 149.185 43.8787C148.811 43.8787 148.491 43.9387 148.225 44.0587C147.958 44.1787 147.751 44.3454 147.605 44.5587C147.471 44.772 147.405 45.0254 147.405 45.3187C147.405 45.652 147.505 45.9387 147.705 46.1787C147.905 46.4054 148.205 46.6254 148.605 46.8387C149.005 47.052 149.505 47.3054 150.105 47.5987C150.838 47.9454 151.458 48.3054 151.965 48.6787C152.485 49.052 152.885 49.492 153.165 49.9987C153.445 50.5054 153.585 51.132 153.585 51.8787ZM164.4 55.8387H156.18V41.5587H164.4V44.0387H159.2V47.1787H164.04V49.6587H159.2V53.3387H164.4V55.8387Z" fill="white"/>
<path d="M31.2703 14.3103L10.7082 33.0093V53.191C10.7082 53.7136 10.8962 54.2147 11.2309 54.5842C11.5655 54.9537 12.0194 55.1613 12.4926 55.1613L24.9903 55.1256C25.462 55.123 25.9136 54.9142 26.2463 54.545C26.579 54.1758 26.7658 53.6762 26.7658 53.1553V41.3694C26.7658 40.8469 26.9538 40.3457 27.2884 39.9762C27.6231 39.6067 28.077 39.3992 28.5502 39.3992H35.6879C36.1612 39.3992 36.615 39.6067 36.9497 39.9762C37.2843 40.3457 37.4723 40.8469 37.4723 41.3694V53.1467C37.4716 53.4059 37.5172 53.6628 37.6066 53.9026C37.6959 54.1423 37.8272 54.3603 37.993 54.5439C38.1588 54.7275 38.3557 54.8731 38.5726 54.9726C38.7895 55.072 39.0219 55.1231 39.2568 55.1231L51.7499 55.1613C52.2232 55.1613 52.6771 54.9537 53.0117 54.5842C53.3464 54.2147 53.5344 53.7136 53.5344 53.191V32.9958L32.9767 14.3103C32.735 14.0952 32.4339 13.9779 32.1235 13.9779C31.8131 13.9779 31.512 14.0952 31.2703 14.3103ZM63.7502 27.0197L54.4266 18.534V1.4777C54.4266 1.08579 54.2856 0.709931 54.0346 0.432808C53.7836 0.155686 53.4432 0 53.0883 0H46.8428C46.4878 0 46.1474 0.155686 45.8964 0.432808C45.6455 0.709931 45.5045 1.08579 45.5045 1.4777V10.419L35.5195 1.3484C34.5613 0.477764 33.3589 0.00174042 32.1179 0.00174042C30.877 0.00174042 29.6746 0.477764 28.7164 1.3484L0.485696 27.0197C0.350178 27.1434 0.238058 27.2954 0.155742 27.4669C0.0734266 27.6384 0.0225292 27.8262 0.00595792 28.0195C-0.0106134 28.2127 0.00746632 28.4077 0.0591639 28.5932C0.110862 28.7788 0.195164 28.9513 0.307254 29.1008L3.15118 32.9182C3.26296 33.0683 3.40046 33.1926 3.55579 33.2839C3.71113 33.3752 3.88125 33.4318 4.05643 33.4505C4.2316 33.4691 4.40839 33.4494 4.57666 33.3926C4.74494 33.3357 4.9014 33.2427 5.03709 33.1189L31.2703 9.26148C31.512 9.04638 31.8131 8.92909 32.1235 8.92909C32.4339 8.92909 32.735 9.04638 32.9767 9.26148L59.2111 33.1189C59.3465 33.2427 59.5027 33.3358 59.6708 33.3929C59.8388 33.4499 60.0154 33.4699 60.1904 33.4516C60.3655 33.4333 60.5355 33.3771 60.6909 33.2862C60.8462 33.1953 60.9839 33.0715 61.0959 32.9219L63.9398 29.1045C64.0518 28.9541 64.1357 28.7807 64.1868 28.5944C64.2379 28.408 64.2551 28.2123 64.2375 28.0186C64.2199 27.8249 64.1678 27.6369 64.0841 27.4655C64.0005 27.2941 63.887 27.1426 63.7502 27.0197Z" fill="white"/>
<path d="M71.1628 24.1935L116.134 29.0323L164.07 24.1935V34.8387H71.1628V24.1935Z" fill="#F0BB00"/>
</svg>
